<svg xmlns="http://www.w3.org/2000/svg" xmlns:xlink="http://www.w3.org/1999/xlink" version="1.1" x="0px" y="0px" viewBox="0 0 100 125" enable-background="new 0 0 100 100" xml:space="preserve"><g><path fill="#000000" d="M47.4,80.5c-0.9-0.1-1.7,0.6-1.7,1.5c0,0.1,0,0.1,0,0.2c0,0.1,0,0.2,0,0.3c0,0.8,0.6,1.5,1.4,1.6   c0.1,0,0.2,0,0.3,0c0.8,0,1.5-0.6,1.6-1.4c0-0.2,0-0.3,0.1-0.5c0-0.4-0.1-0.9-0.4-1.2C48.2,80.8,47.8,80.6,47.4,80.5z"/><path fill="#000000" d="M43.9,83.8c-0.1,0-0.1,0-0.2,0c-0.9,0-1.7,0.7-1.7,1.6c0,0,0,0.1,0,0.1c0,0.9,0.7,1.6,1.6,1.6   c0.1,0,0.1,0,0.2,0c0.1,0,0.2,0,0.2,0c0.9,0,1.6-0.8,1.6-1.7C45.5,84.5,44.8,83.8,43.9,83.8z"/><path fill="#000000" d="M47.3,79L47.3,79c0.9,0,1.6-0.7,1.6-1.6V77c0-0.9-0.7-1.6-1.6-1.6h0c-0.4,0-0.8,0.2-1.2,0.5   c-0.3,0.3-0.5,0.7-0.5,1.2v0.3C45.7,78.3,46.4,79,47.3,79z"/><path fill="#000000" d="M40.3,79L40.3,79c0.4,0,0.9-0.2,1.2-0.5c0.3-0.3,0.5-0.7,0.5-1.2V77c0-0.9-0.7-1.6-1.6-1.6h0   c-0.4,0-0.8,0.2-1.2,0.5c-0.3,0.3-0.5,0.7-0.5,1.2v0.3C38.6,78.3,39.4,79,40.3,79z"/><path fill="#000000" d="M41.9,82.1c-0.1-0.9-0.8-1.6-1.7-1.5c-0.9,0.1-1.5,0.8-1.5,1.6c0,0,0,0.1,0,0.1c0,0,0,0,0,0l0,0   c0,0.1,0,0.3,0,0.4c0.1,0.8,0.8,1.4,1.6,1.4c0.1,0,0.2,0,0.3,0c0.4-0.1,0.8-0.3,1.1-0.7c0.3-0.4,0.4-0.8,0.3-1.2   C41.9,82.2,41.9,82.1,41.9,82.1z"/><path fill="#000000" d="M47.4,70.4h-0.2c-0.4,0-0.9,0.2-1.2,0.5c-0.3,0.3-0.5,0.7-0.5,1.2l0,0.2c0,0,0,0,0,0v0   c0,0.9,0.7,1.6,1.6,1.6h0c0.1,0,0.1,0,0.2,0c0,0,0,0,0,0c0.1,0,0.2,0,0.3-0.1c0,0,0,0,0,0c0.2-0.1,0.3-0.1,0.4-0.2   c0.1,0,0.1-0.1,0.1-0.1c0,0,0,0,0,0c0,0,0,0,0-0.1c0,0,0,0,0,0c0.3-0.3,0.6-0.7,0.6-1.2C49.1,71.2,48.3,70.4,47.4,70.4z"/><path fill="#000000" d="M51.4,73.3c0.3,0.3,0.7,0.6,1.2,0.6c0,0,0,0,0,0c0.9,0,1.6-0.7,1.6-1.6l0-0.2c0-0.9-0.7-1.6-1.6-1.6h-0.2   c-0.9,0-1.6,0.7-1.6,1.6C50.9,72.6,51.1,73,51.4,73.3z"/><path fill="#000000" d="M54.3,82.1c-0.1-0.9-0.8-1.6-1.7-1.5c-0.9,0.1-1.5,0.8-1.5,1.6c0,0,0,0.1,0,0.1c0,0.2,0,0.3,0.1,0.5   c0.1,0.8,0.8,1.4,1.6,1.4c0.1,0,0.2,0,0.3,0c0.4-0.1,0.8-0.3,1.1-0.7c0.3-0.4,0.4-0.8,0.3-1.2C54.3,82.2,54.3,82.1,54.3,82.1z"/><path fill="#000000" d="M52.7,79L52.7,79c0.9,0,1.6-0.7,1.6-1.6V77c0-0.9-0.7-1.6-1.6-1.6h0c-0.4,0-0.8,0.2-1.2,0.5   C51.2,76.2,51,76.6,51,77v0.3C51,78.3,51.8,79,52.7,79z"/><path fill="#000000" d="M59.8,80.5c-0.9-0.1-1.7,0.6-1.7,1.5c0,0.1,0,0.1,0,0.2c0,0.1,0,0.2,0,0.3c0,0.8,0.6,1.5,1.4,1.6   c0.1,0,0.2,0,0.3,0c0.8,0,1.5-0.6,1.6-1.4c0-0.1,0-0.3,0.1-0.5c0-0.4-0.1-0.9-0.4-1.2C60.7,80.8,60.3,80.6,59.8,80.5z"/><path fill="#000000" d="M59.7,79L59.7,79c0.4,0,0.9-0.2,1.2-0.5c0.3-0.3,0.5-0.7,0.5-1.2V77c0-0.9-0.7-1.6-1.6-1.6h0   c-0.4,0-0.8,0.2-1.2,0.5c-0.3,0.3-0.5,0.7-0.5,1.2v0.3C58.1,78.3,58.8,79,59.7,79z"/><path fill="#000000" d="M56.3,83.8c-0.1,0-0.1,0-0.2,0c-0.9,0-1.7,0.7-1.7,1.6c0,0,0,0.1,0,0.1c0,0.9,0.7,1.6,1.6,1.6   c0.1,0,0.1,0,0.2,0c0.1,0,0.2,0,0.2,0c0.9,0,1.6-0.8,1.6-1.7C58,84.5,57.2,83.8,56.3,83.8z"/><path fill="#000000" d="M59.8,70.4L59.8,70.4c-0.5,0-0.9,0.2-1.2,0.5c-0.3,0.3-0.5,0.7-0.5,1.2l0,0.2c0,0,0,0,0,0v0   c0,0.9,0.7,1.6,1.6,1.6h0c0.1,0,0.1,0,0.2,0c0,0,0,0,0,0c0.1,0,0.2,0,0.3-0.1c0,0,0,0,0,0c0.2-0.1,0.3-0.1,0.4-0.2   c0,0,0.1-0.1,0.1-0.1c0,0,0,0,0.1-0.1c0,0,0,0,0-0.1c0,0,0,0,0,0c0.4-0.3,0.6-0.8,0.6-1.3C61.5,71.1,60.7,70.4,59.8,70.4z"/><path fill="#000000" d="M40.5,32.6c-0.3,0.3-0.5,0.7-0.5,1.2c0,0.4,0.2,0.8,0.4,1.1c0,0,0,0,0,0c0.1,0.1,0.2,0.2,0.3,0.3   c0.3,0.3,0.7,0.5,1.2,0.5c0.4,0,0.8-0.2,1.1-0.5c0.3-0.3,0.5-0.7,0.5-1.2c0-0.4-0.2-0.9-0.5-1.2c-0.1-0.1-0.1-0.1-0.2-0.2   c-0.3-0.3-0.7-0.5-1.2-0.5C41.2,32.1,40.8,32.3,40.5,32.6z"/><path fill="#000000" d="M44.7,17.4c0.3,0,0.5-0.1,0.8-0.2c0.1,0,0.2-0.1,0.3-0.1c0.6-0.3,0.9-0.9,0.9-1.5c0-0.2-0.1-0.5-0.2-0.7   C46.2,14.3,45.6,14,45,14c-0.2,0-0.5,0.1-0.7,0.2c0,0,0,0,0,0c-0.1,0.1-0.2,0.1-0.3,0.2c-0.8,0.4-1.1,1.4-0.7,2.2   C43.5,17,44.1,17.4,44.7,17.4z"/><path fill="#000000" d="M44.8,36.4c-0.2-0.1-0.4-0.1-0.6-0.1c-0.7,0-1.3,0.4-1.5,1.1c0,0,0,0.1,0,0.1c-0.2,0.4-0.2,0.8-0.1,1.2   c0.1,0.4,0.4,0.8,0.8,1c0.2,0.1,0.5,0.2,0.8,0.2c0.6,0,1.2-0.3,1.4-0.9c0.1-0.2,0.2-0.3,0.2-0.5c0.1-0.2,0.1-0.4,0.1-0.6   C45.8,37.3,45.4,36.7,44.8,36.4z"/><path fill="#000000" d="M61.6,45c-0.9,0.2-1.4,1.1-1.2,2c0,0.1,0,0.2,0.1,0.3c0.2,0.7,0.8,1.3,1.6,1.3c0.1,0,0.2,0,0.3,0   c0.7-0.2,1.3-0.8,1.3-1.6c0-0.1,0-0.2,0-0.3c0-0.1-0.1-0.3-0.1-0.4c-0.2-0.7-0.8-1.3-1.6-1.3C61.9,44.9,61.7,44.9,61.6,45z"/><path fill="#000000" d="M39.7,20.5c0.3,0.2,0.6,0.3,1,0.3c0.5,0,1-0.3,1.3-0.7c0.1-0.1,0.1-0.2,0.2-0.2c0.2-0.3,0.3-0.6,0.3-1   c0-0.5-0.2-1-0.6-1.3c-0.3-0.2-0.6-0.3-1-0.3c-0.5,0-1,0.2-1.3,0.6c-0.1,0.1-0.1,0.2-0.2,0.3c-0.3,0.4-0.4,0.8-0.3,1.2   C39.1,19.9,39.4,20.3,39.7,20.5z"/><path fill="#000000" d="M59.7,24.2c0,0.1,0,0.2,0,0.3c0.1,0.8,0.8,1.4,1.6,1.4c0.1,0,0.2,0,0.2,0c0.8-0.1,1.4-0.8,1.4-1.6   c0-0.1,0-0.2,0-0.2c0-0.1,0-0.2-0.1-0.4c-0.1-0.8-0.8-1.3-1.6-1.3c-0.1,0-0.2,0-0.3,0C60.1,22.4,59.6,23.3,59.7,24.2z"/><path fill="#000000" d="M39.2,43.3c0.3,0.2,0.6,0.3,1,0.3c0.5,0,1-0.2,1.3-0.6c0.1-0.1,0.1-0.1,0.2-0.2c0.2-0.3,0.4-0.7,0.4-1   c0-0.5-0.2-1-0.6-1.3c-0.3-0.2-0.7-0.4-1-0.4c-0.5,0-1,0.2-1.3,0.6c-0.1,0.1-0.1,0.2-0.2,0.3c-0.3,0.3-0.4,0.8-0.3,1.2   C38.7,42.6,38.9,43,39.2,43.3z"/><path fill="#000000" d="M39.5,31c0.9-0.3,1.3-1.2,1.1-2.1c0-0.1-0.1-0.2-0.1-0.3c-0.2-0.7-0.8-1.2-1.6-1.2c-0.2,0-0.3,0-0.5,0.1   c-0.7,0.2-1.2,0.9-1.2,1.6c0,0.2,0,0.3,0.1,0.4c0,0.1,0.1,0.3,0.1,0.4c0.2,0.7,0.8,1.1,1.6,1.1C39.2,31.1,39.4,31.1,39.5,31z"/><path fill="#000000" d="M38.4,25.8c0.1,0,0.2,0,0.3,0c0.8,0,1.5-0.6,1.6-1.4c0-0.1,0-0.2,0-0.3c0-0.1,0-0.2,0-0.3   c0-0.8-0.6-1.5-1.3-1.6c-0.1,0-0.2,0-0.3,0c-0.8,0-1.5,0.6-1.6,1.3c0,0.1,0,0.2-0.1,0.4C36.9,24.8,37.5,25.6,38.4,25.8z"/><path fill="#000000" d="M58,20.2c0.3,0.4,0.8,0.7,1.3,0.7c0.3,0,0.7-0.1,1-0.3c0.4-0.3,0.7-0.8,0.7-1.3c0-0.3-0.1-0.7-0.3-0.9   c-0.1-0.1-0.1-0.2-0.2-0.3c-0.3-0.4-0.8-0.6-1.3-0.6c-0.4,0-0.7,0.1-1,0.3c-0.7,0.5-0.9,1.6-0.3,2.3C57.9,20.1,58,20.2,58,20.2z"/><path fill="#000000" d="M54.3,17.1c0.1,0,0.2,0.1,0.3,0.1c0.2,0.1,0.5,0.2,0.8,0.2c0.6,0,1.2-0.3,1.4-0.9c0.1-0.2,0.2-0.5,0.2-0.8   c0-0.6-0.3-1.2-0.9-1.4c-0.1-0.1-0.2-0.1-0.3-0.2c-0.2-0.1-0.5-0.2-0.7-0.2c-0.6,0-1.2,0.3-1.5,0.9C53.2,15.7,53.5,16.7,54.3,17.1z   "/><path fill="#000000" d="M62.5,30L62.5,30c0-0.1,0.1-0.2,0.1-0.4c0.1-0.4,0.1-0.9-0.1-1.2c-0.2-0.4-0.6-0.7-1-0.8   c-0.2,0-0.3-0.1-0.5-0.1c-0.7,0-1.4,0.5-1.6,1.2c0,0.1-0.1,0.2-0.1,0.3c-0.1,0.2-0.1,0.3-0.1,0.5c0,0.7,0.5,1.3,1.1,1.6   c0.2,0.1,0.3,0.1,0.5,0.1C61.7,31.2,62.3,30.7,62.5,30z"/><path fill="#000000" d="M57,35.2c0.3,0.3,0.7,0.5,1.2,0.5c0.4,0,0.9-0.2,1.2-0.5c0.1-0.1,0.2-0.2,0.3-0.3c0.6-0.7,0.6-1.7-0.1-2.3   c-0.3-0.3-0.7-0.4-1.1-0.4c-0.4,0-0.9,0.2-1.2,0.5c-0.1,0.1-0.1,0.1-0.2,0.2c-0.3,0.3-0.5,0.7-0.5,1.2C56.5,34.5,56.7,34.9,57,35.2   z"/><path fill="#000000" d="M55.8,36.4c-0.2,0-0.4,0-0.6,0.1c-0.4,0.2-0.7,0.5-0.9,0.9c-0.2,0.4-0.2,0.8,0,1.3c0.1,0.2,0.2,0.3,0.2,0.5   c0.3,0.5,0.8,0.8,1.4,0.8c0.3,0,0.6-0.1,0.8-0.2c0.5-0.3,0.8-0.8,0.8-1.4c0-0.3-0.1-0.6-0.2-0.8c0,0,0-0.1,0-0.1   C57.1,36.8,56.5,36.4,55.8,36.4z"/><path fill="#000000" d="M37.7,64.5c0.9,0,1.6-0.7,1.6-1.6v-0.3c0-0.4-0.2-0.8-0.5-1.2c-0.3-0.3-0.7-0.5-1.2-0.5   c-0.9,0-1.6,0.7-1.6,1.6v0.3c0,0.4,0.2,0.8,0.5,1.2C36.8,64.4,37.2,64.5,37.7,64.5z"/><path fill="#000000" d="M62.3,61c-0.9,0-1.6,0.7-1.6,1.6l0,0.3c0,0.4,0.2,0.8,0.5,1.2c0.3,0.3,0.7,0.5,1.2,0.5   c0.9,0,1.6-0.7,1.6-1.6v-0.3C64,61.8,63.2,61,62.3,61z"/><path fill="#000000" d="M62.3,66.4c-0.9,0-1.6,0.7-1.6,1.6v0.3c0,0.9,0.7,1.6,1.6,1.6c0.9,0,1.6-0.7,1.6-1.6V68   c0-0.4-0.2-0.9-0.5-1.2C63.2,66.6,62.8,66.4,62.3,66.4z"/><path fill="#000000" d="M62.3,55.6c-0.9,0-1.6,0.7-1.6,1.6v0.3c0,0.4,0.2,0.8,0.5,1.2c0.3,0.3,0.7,0.5,1.2,0.5   c0.9,0,1.6-0.7,1.6-1.6v-0.3c0-0.4-0.2-0.8-0.5-1.2C63.2,55.8,62.8,55.6,62.3,55.6z"/><path fill="#000000" d="M37.6,48.4c0.1,0,0.2,0,0.4,0c0.8,0,1.4-0.5,1.6-1.3c0-0.1,0-0.2,0.1-0.3c0-0.1,0-0.3,0-0.4   c0-0.8-0.5-1.4-1.2-1.6c-0.1,0-0.3,0-0.4,0c-0.8,0-1.4,0.5-1.6,1.2c0,0.1-0.1,0.2-0.1,0.4c-0.1,0.4,0,0.9,0.2,1.2   C36.8,48,37.2,48.3,37.6,48.4z"/><path fill="#000000" d="M51.8,14.5C51.8,14.5,51.8,14.5,51.8,14.5c0-0.9-0.7-1.6-1.6-1.7h0c-0.1,0-0.2,0-0.4,0   c-0.9,0-1.6,0.7-1.6,1.7c0,0.9,0.7,1.6,1.6,1.6h0c0.1,0,0.2,0,0.3,0c0,0,0,0,0,0C51.1,16.1,51.8,15.4,51.8,14.5z"/><path fill="#000000" d="M62.3,50.3c-0.9,0-1.6,0.7-1.6,1.6l0,0.3c0,0.9,0.7,1.6,1.6,1.6c0.9,0,1.6-0.7,1.6-1.6l0-0.3   C64,51,63.2,50.3,62.3,50.3z"/><path fill="#000000" d="M58.5,43c0.3,0.4,0.8,0.7,1.3,0.7c0.4,0,0.7-0.1,1-0.3c0.4-0.3,0.7-0.8,0.6-1.3c0-0.4-0.1-0.7-0.3-1   c-0.1-0.1-0.2-0.2-0.2-0.3c-0.3-0.4-0.8-0.6-1.3-0.6c-0.4,0-0.7,0.1-1,0.4c-0.7,0.6-0.8,1.6-0.3,2.3C58.4,42.9,58.5,42.9,58.5,43z"/><path fill="#000000" d="M37.7,53.8c0.9,0,1.6-0.7,1.6-1.6v-0.3c0-0.4-0.2-0.8-0.5-1.2c-0.3-0.3-0.7-0.5-1.2-0.5   c-0.9,0-1.6,0.7-1.6,1.6l0,0.3C36,53.1,36.8,53.8,37.7,53.8z"/><path fill="#000000" d="M39.1,73.4c0.3,0.3,0.7,0.5,1.2,0.5c0,0,0,0,0,0c0.9,0,1.6-0.7,1.6-1.6l0-0.2c0-0.9-0.7-1.6-1.6-1.6   c0,0,0,0-0.1,0c0,0,0,0,0,0c0,0,0,0,0,0h0c-0.9-0.1-1.7,0.6-1.8,1.5c0,0,0,0.1,0,0.1C38.4,72.6,38.7,73.1,39.1,73.4z"/><path fill="#000000" d="M37.7,59.2c0.9,0,1.6-0.7,1.6-1.6v-0.3c0-0.4-0.2-0.8-0.5-1.2c-0.3-0.3-0.7-0.5-1.2-0.5   c-0.9,0-1.6,0.7-1.6,1.6v0.3C36,58.4,36.8,59.2,37.7,59.2z"/><path fill="#000000" d="M39.3,68.3v-0.3c0-0.9-0.7-1.6-1.6-1.6c-0.9,0-1.6,0.7-1.6,1.6v0.3c0,0.9,0.7,1.6,1.6,1.6   C38.6,69.9,39.3,69.2,39.3,68.3z"/><path fill="#000000" d="M23.7,37.3c4.8-2.1,7.7-6.9,7.4-12.1c-0.4-6.1-5.3-11-11.4-11.5c-0.3,0-0.6,0-0.9,0   C12,13.6,6.5,19.2,6.5,26c0,4.9,2.9,9.3,7.4,11.3c-4.9,2-8.2,6.9-8.2,12.2l0,20c0,0.9,0.4,1.8,1,2.4c0.4,0.4,1,0.7,1.6,0.9l0,10.1   c0,2.4,1.9,4.3,4.3,4.3c1.2,0,2.2-0.5,3.1-1.3c0.8-0.8,1.3-1.9,1.3-3.1l0-10h3.8l0,10c0,2.4,1.9,4.3,4.3,4.3c1.2,0,2.2-0.5,3.1-1.3   c0.8-0.8,1.3-1.9,1.3-3.1l0-10.1c1.5-0.4,2.6-1.7,2.6-3.3l0-20C32,44.1,28.7,39.2,23.7,37.3z"/><path fill="#000000" d="M86.1,37.3c4.8-2.1,7.7-6.9,7.4-12.1c-0.4-6.1-5.3-11-11.4-11.5c-0.3,0-0.6,0-0.9,0   c-6.8,0-12.3,5.5-12.3,12.3c0,4.9,2.9,9.3,7.4,11.3c-4.9,2-8.2,6.9-8.2,12.2l0,20c0,0.9,0.4,1.8,1,2.4c0.4,0.4,1,0.7,1.6,0.9   l0,10.1c0,2.4,1.9,4.3,4.3,4.3c1.2,0,2.2-0.5,3.1-1.3c0.8-0.8,1.3-1.9,1.3-3.1l0-10H83l0,10c0,2.4,1.9,4.3,4.3,4.3   c1.2,0,2.2-0.5,3.1-1.3c0.8-0.8,1.3-1.9,1.3-3.1l0-10.1c1.5-0.4,2.6-1.7,2.6-3.3l0-20C94.3,44.1,91,39.2,86.1,37.3z"/></g><text x="0" y="115" fill="#000000" font-size="5px" font-weight="bold" font-family="'Helvetica Neue', Helvetica, Arial-Unicode, Arial, Sans-serif">Created by HeadsOfBirds</text><text x="0" y="120" fill="#000000" font-size="5px" font-weight="bold" font-family="'Helvetica Neue', Helvetica, Arial-Unicode, Arial, Sans-serif">from the Noun Project</text></svg>