<svg xmlns="http://www.w3.org/2000/svg" xmlns:xlink="http://www.w3.org/1999/xlink" version="1.1" enable-background="new 0 0 100 100" xml:space="preserve" width="89" height="74" style=""><rect id="backgroundrect" width="100%" height="100%" x="0" y="0" fill="none" stroke="none" class="" style=""/><g class="currentLayer" style=""><title>Layer 1</title><g id="svg_1" class="selected" fill="#773095" fill-opacity="1"><path fill="#773095" d="M41.70000019073486,67.69999980926514 c-0.9,-0.1 -1.7000000000000002,0.6000000000000001 -1.7000000000000002,1.5 c0,0.1 0,0.1 0,0.2 c0,0.1 0,0.2 0,0.30000000000000004 c0,0.8 0.6000000000000001,1.5 1.4,1.6 c0.1,0 0.2,0 0.30000000000000004,0 c0.8,0 1.5,-0.6000000000000001 1.6,-1.4 c0,-0.2 0,-0.30000000000000004 0.1,-0.5 c0,-0.4 -0.1,-0.9 -0.4,-1.2 C42.500000190734866,67.99999980926513 42.10000019073486,67.79999980926513 41.70000019073486,67.69999980926514 z" id="svg_2" fill-opacity="1"/><path fill="#773095" d="M38.20000019073486,70.99999980926513 c-0.1,0 -0.1,0 -0.2,0 c-0.9,0 -1.7000000000000002,0.7000000000000001 -1.7000000000000002,1.6 c0,0 0,0.1 0,0.1 c0,0.9 0.7000000000000001,1.6 1.6,1.6 c0.1,0 0.1,0 0.2,0 c0.1,0 0.2,0 0.2,0 c0.9,0 1.6,-0.8 1.6,-1.7000000000000002 C39.80000019073486,71.69999980926514 39.10000019073486,70.99999980926513 38.20000019073486,70.99999980926513 z" id="svg_3" fill-opacity="1"/><path fill="#773095" d="M41.60000019073486,66.19999980926514 L41.60000019073486,66.19999980926514 c0.9,0 1.6,-0.7000000000000001 1.6,-1.6 V64.19999980926514 c0,-0.9 -0.7000000000000001,-1.6 -1.6,-1.6 h0 c-0.4,0 -0.8,0.2 -1.2,0.5 c-0.30000000000000004,0.30000000000000004 -0.5,0.7000000000000001 -0.5,1.2 v0.30000000000000004 C40.000000190734866,65.49999980926513 40.70000019073486,66.19999980926514 41.60000019073486,66.19999980926514 z" id="svg_4" fill-opacity="1"/><path fill="#773095" d="M34.60000019073486,66.19999980926514 L34.60000019073486,66.19999980926514 c0.4,0 0.9,-0.2 1.2,-0.5 c0.30000000000000004,-0.30000000000000004 0.5,-0.7000000000000001 0.5,-1.2 V64.19999980926514 c0,-0.9 -0.7000000000000001,-1.6 -1.6,-1.6 h0 c-0.4,0 -0.8,0.2 -1.2,0.5 c-0.30000000000000004,0.30000000000000004 -0.5,0.7000000000000001 -0.5,1.2 v0.30000000000000004 C32.900000190734865,65.49999980926513 33.70000019073486,66.19999980926514 34.60000019073486,66.19999980926514 z" id="svg_5" fill-opacity="1"/><path fill="#773095" d="M36.20000019073486,69.29999980926513 c-0.1,-0.9 -0.8,-1.6 -1.7000000000000002,-1.5 c-0.9,0.1 -1.5,0.8 -1.5,1.6 c0,0 0,0.1 0,0.1 c0,0 0,0 0,0 l0,0 c0,0.1 0,0.30000000000000004 0,0.4 c0.1,0.8 0.8,1.4 1.6,1.4 c0.1,0 0.2,0 0.30000000000000004,0 c0.4,-0.1 0.8,-0.30000000000000004 1.1,-0.7000000000000001 c0.30000000000000004,-0.4 0.4,-0.8 0.30000000000000004,-1.2 C36.20000019073486,69.39999980926514 36.20000019073486,69.29999980926513 36.20000019073486,69.29999980926513 z" id="svg_6" fill-opacity="1"/><path fill="#773095" d="M41.70000019073486,57.59999980926514 h-0.2 c-0.4,0 -0.9,0.2 -1.2,0.5 c-0.30000000000000004,0.30000000000000004 -0.5,0.7000000000000001 -0.5,1.2 l0,0.2 c0,0 0,0 0,0 v0 c0,0.9 0.7000000000000001,1.6 1.6,1.6 h0 c0.1,0 0.1,0 0.2,0 c0,0 0,0 0,0 c0.1,0 0.2,0 0.30000000000000004,-0.1 c0,0 0,0 0,0 c0.2,-0.1 0.30000000000000004,-0.1 0.4,-0.2 c0.1,0 0.1,-0.1 0.1,-0.1 c0,0 0,0 0,0 c0,0 0,0 0,-0.1 c0,0 0,0 0,0 c0.30000000000000004,-0.30000000000000004 0.6000000000000001,-0.7000000000000001 0.6000000000000001,-1.2 C43.400000190734865,58.39999980926514 42.60000019073486,57.59999980926514 41.70000019073486,57.59999980926514 z" id="svg_7" fill-opacity="1"/><path fill="#773095" d="M45.70000019073486,60.499999809265134 c0.30000000000000004,0.30000000000000004 0.7000000000000001,0.6000000000000001 1.2,0.6000000000000001 c0,0 0,0 0,0 c0.9,0 1.6,-0.7000000000000001 1.6,-1.6 l0,-0.2 c0,-0.9 -0.7000000000000001,-1.6 -1.6,-1.6 h-0.2 c-0.9,0 -1.6,0.7000000000000001 -1.6,1.6 C45.20000019073486,59.79999980926513 45.400000190734865,60.19999980926514 45.70000019073486,60.499999809265134 z" id="svg_8" fill-opacity="1"/><path fill="#773095" d="M48.60000019073486,69.29999980926513 c-0.1,-0.9 -0.8,-1.6 -1.7000000000000002,-1.5 c-0.9,0.1 -1.5,0.8 -1.5,1.6 c0,0 0,0.1 0,0.1 c0,0.2 0,0.30000000000000004 0.1,0.5 c0.1,0.8 0.8,1.4 1.6,1.4 c0.1,0 0.2,0 0.30000000000000004,0 c0.4,-0.1 0.8,-0.30000000000000004 1.1,-0.7000000000000001 c0.30000000000000004,-0.4 0.4,-0.8 0.30000000000000004,-1.2 C48.60000019073486,69.39999980926514 48.60000019073486,69.29999980926513 48.60000019073486,69.29999980926513 z" id="svg_9" fill-opacity="1"/><path fill="#773095" d="M47.000000190734866,66.19999980926514 L47.000000190734866,66.19999980926514 c0.9,0 1.6,-0.7000000000000001 1.6,-1.6 V64.19999980926514 c0,-0.9 -0.7000000000000001,-1.6 -1.6,-1.6 h0 c-0.4,0 -0.8,0.2 -1.2,0.5 C45.500000190734866,63.39999980926514 45.30000019073486,63.79999980926513 45.30000019073486,64.19999980926514 v0.30000000000000004 C45.30000019073486,65.49999980926513 46.10000019073486,66.19999980926514 47.000000190734866,66.19999980926514 z" id="svg_10" fill-opacity="1"/><path fill="#773095" d="M54.10000019073486,67.69999980926514 c-0.9,-0.1 -1.7000000000000002,0.6000000000000001 -1.7000000000000002,1.5 c0,0.1 0,0.1 0,0.2 c0,0.1 0,0.2 0,0.30000000000000004 c0,0.8 0.6000000000000001,1.5 1.4,1.6 c0.1,0 0.2,0 0.30000000000000004,0 c0.8,0 1.5,-0.6000000000000001 1.6,-1.4 c0,-0.1 0,-0.30000000000000004 0.1,-0.5 c0,-0.4 -0.1,-0.9 -0.4,-1.2 C55.000000190734866,67.99999980926513 54.60000019073486,67.79999980926513 54.10000019073486,67.69999980926514 z" id="svg_11" fill-opacity="1"/><path fill="#773095" d="M54.000000190734866,66.19999980926514 L54.000000190734866,66.19999980926514 c0.4,0 0.9,-0.2 1.2,-0.5 c0.30000000000000004,-0.30000000000000004 0.5,-0.7000000000000001 0.5,-1.2 V64.19999980926514 c0,-0.9 -0.7000000000000001,-1.6 -1.6,-1.6 h0 c-0.4,0 -0.8,0.2 -1.2,0.5 c-0.30000000000000004,0.30000000000000004 -0.5,0.7000000000000001 -0.5,1.2 v0.30000000000000004 C52.400000190734865,65.49999980926513 53.10000019073486,66.19999980926514 54.000000190734866,66.19999980926514 z" id="svg_12" fill-opacity="1"/><path fill="#773095" d="M50.60000019073486,70.99999980926513 c-0.1,0 -0.1,0 -0.2,0 c-0.9,0 -1.7000000000000002,0.7000000000000001 -1.7000000000000002,1.6 c0,0 0,0.1 0,0.1 c0,0.9 0.7000000000000001,1.6 1.6,1.6 c0.1,0 0.1,0 0.2,0 c0.1,0 0.2,0 0.2,0 c0.9,0 1.6,-0.8 1.6,-1.7000000000000002 C52.30000019073486,71.69999980926514 51.500000190734866,70.99999980926513 50.60000019073486,70.99999980926513 z" id="svg_13" fill-opacity="1"/><path fill="#773095" d="M54.10000019073486,57.59999980926514 L54.10000019073486,57.59999980926514 c-0.5,0 -0.9,0.2 -1.2,0.5 c-0.30000000000000004,0.30000000000000004 -0.5,0.7000000000000001 -0.5,1.2 l0,0.2 c0,0 0,0 0,0 v0 c0,0.9 0.7000000000000001,1.6 1.6,1.6 h0 c0.1,0 0.1,0 0.2,0 c0,0 0,0 0,0 c0.1,0 0.2,0 0.30000000000000004,-0.1 c0,0 0,0 0,0 c0.2,-0.1 0.30000000000000004,-0.1 0.4,-0.2 c0,0 0.1,-0.1 0.1,-0.1 c0,0 0,0 0.1,-0.1 c0,0 0,0 0,-0.1 c0,0 0,0 0,0 c0.4,-0.30000000000000004 0.6000000000000001,-0.8 0.6000000000000001,-1.3 C55.80000019073486,58.29999980926513 55.000000190734866,57.59999980926514 54.10000019073486,57.59999980926514 z" id="svg_14" fill-opacity="1"/><path fill="#773095" d="M34.80000019073486,19.799999809265138 c-0.30000000000000004,0.30000000000000004 -0.5,0.7000000000000001 -0.5,1.2 c0,0.4 0.2,0.8 0.4,1.1 c0,0 0,0 0,0 c0.1,0.1 0.2,0.2 0.30000000000000004,0.30000000000000004 c0.30000000000000004,0.30000000000000004 0.7000000000000001,0.5 1.2,0.5 c0.4,0 0.8,-0.2 1.1,-0.5 c0.30000000000000004,-0.30000000000000004 0.5,-0.7000000000000001 0.5,-1.2 c0,-0.4 -0.2,-0.9 -0.5,-1.2 c-0.1,-0.1 -0.1,-0.1 -0.2,-0.2 c-0.30000000000000004,-0.30000000000000004 -0.7000000000000001,-0.5 -1.2,-0.5 C35.500000190734866,19.299999809265138 35.10000019073486,19.499999809265134 34.80000019073486,19.799999809265138 z" id="svg_15" fill-opacity="1"/><path fill="#773095" d="M39.000000190734866,4.599999809265135 c0.30000000000000004,0 0.5,-0.1 0.8,-0.2 c0.1,0 0.2,-0.1 0.30000000000000004,-0.1 c0.6000000000000001,-0.30000000000000004 0.9,-0.9 0.9,-1.5 c0,-0.2 -0.1,-0.5 -0.2,-0.7000000000000001 C40.500000190734866,1.4999998092651374 39.900000190734865,1.1999998092651367 39.30000019073486,1.1999998092651367 c-0.2,0 -0.5,0.1 -0.7000000000000001,0.2 c0,0 0,0 0,0 c-0.1,0.1 -0.2,0.1 -0.30000000000000004,0.2 c-0.8,0.4 -1.1,1.4 -0.7000000000000001,2.2 C37.80000019073486,4.199999809265137 38.400000190734865,4.599999809265135 39.000000190734866,4.599999809265135 z" id="svg_16" fill-opacity="1"/><path fill="#773095" d="M39.10000019073486,23.599999809265135 c-0.2,-0.1 -0.4,-0.1 -0.6000000000000001,-0.1 c-0.7000000000000001,0 -1.3,0.4 -1.5,1.1 c0,0 0,0.1 0,0.1 c-0.2,0.4 -0.2,0.8 -0.1,1.2 c0.1,0.4 0.4,0.8 0.8,1 c0.2,0.1 0.5,0.2 0.8,0.2 c0.6000000000000001,0 1.2,-0.30000000000000004 1.4,-0.9 c0.1,-0.2 0.2,-0.30000000000000004 0.2,-0.5 c0.1,-0.2 0.1,-0.4 0.1,-0.6000000000000001 C40.10000019073486,24.499999809265134 39.70000019073486,23.89999980926514 39.10000019073486,23.599999809265135 z" id="svg_17" fill-opacity="1"/><path fill="#773095" d="M55.900000190734865,32.19999980926514 c-0.9,0.2 -1.4,1.1 -1.2,2 c0,0.1 0,0.2 0.1,0.30000000000000004 c0.2,0.7000000000000001 0.8,1.3 1.6,1.3 c0.1,0 0.2,0 0.30000000000000004,0 c0.7000000000000001,-0.2 1.3,-0.8 1.3,-1.6 c0,-0.1 0,-0.2 0,-0.30000000000000004 c0,-0.1 -0.1,-0.30000000000000004 -0.1,-0.4 c-0.2,-0.7000000000000001 -0.8,-1.3 -1.6,-1.3 C56.20000019073486,32.099999809265135 56.000000190734866,32.099999809265135 55.900000190734865,32.19999980926514 z" id="svg_18" fill-opacity="1"/><path fill="#773095" d="M34.000000190734866,7.699999809265137 c0.30000000000000004,0.2 0.6000000000000001,0.30000000000000004 1,0.30000000000000004 c0.5,0 1,-0.30000000000000004 1.3,-0.7000000000000001 c0.1,-0.1 0.1,-0.2 0.2,-0.2 c0.2,-0.30000000000000004 0.30000000000000004,-0.6000000000000001 0.30000000000000004,-1 c0,-0.5 -0.2,-1 -0.6000000000000001,-1.3 c-0.30000000000000004,-0.2 -0.6000000000000001,-0.30000000000000004 -1,-0.30000000000000004 c-0.5,0 -1,0.2 -1.3,0.6000000000000001 c-0.1,0.1 -0.1,0.2 -0.2,0.30000000000000004 c-0.30000000000000004,0.4 -0.4,0.8 -0.30000000000000004,1.2 C33.400000190734865,7.099999809265135 33.70000019073486,7.499999809265137 34.000000190734866,7.699999809265137 z" id="svg_19" fill-opacity="1"/><path fill="#773095" d="M54.000000190734866,11.399999809265136 c0,0.1 0,0.2 0,0.30000000000000004 c0.1,0.8 0.8,1.4 1.6,1.4 c0.1,0 0.2,0 0.2,0 c0.8,-0.1 1.4,-0.8 1.4,-1.6 c0,-0.1 0,-0.2 0,-0.2 c0,-0.1 0,-0.2 -0.1,-0.4 c-0.1,-0.8 -0.8,-1.3 -1.6,-1.3 c-0.1,0 -0.2,0 -0.30000000000000004,0 C54.400000190734865,9.599999809265135 53.900000190734865,10.499999809265137 54.000000190734866,11.399999809265136 z" id="svg_20" fill-opacity="1"/><path fill="#773095" d="M33.500000190734866,30.499999809265134 c0.30000000000000004,0.2 0.6000000000000001,0.30000000000000004 1,0.30000000000000004 c0.5,0 1,-0.2 1.3,-0.6000000000000001 c0.1,-0.1 0.1,-0.1 0.2,-0.2 c0.2,-0.30000000000000004 0.4,-0.7000000000000001 0.4,-1 c0,-0.5 -0.2,-1 -0.6000000000000001,-1.3 c-0.30000000000000004,-0.2 -0.7000000000000001,-0.4 -1,-0.4 c-0.5,0 -1,0.2 -1.3,0.6000000000000001 c-0.1,0.1 -0.1,0.2 -0.2,0.30000000000000004 c-0.30000000000000004,0.30000000000000004 -0.4,0.8 -0.30000000000000004,1.2 C33.000000190734866,29.799999809265138 33.20000019073486,30.199999809265137 33.500000190734866,30.499999809265134 z" id="svg_21" fill-opacity="1"/><path fill="#773095" d="M33.80000019073486,18.199999809265137 c0.9,-0.30000000000000004 1.3,-1.2 1.1,-2.1 c0,-0.1 -0.1,-0.2 -0.1,-0.30000000000000004 c-0.2,-0.7000000000000001 -0.8,-1.2 -1.6,-1.2 c-0.2,0 -0.30000000000000004,0 -0.5,0.1 c-0.7000000000000001,0.2 -1.2,0.9 -1.2,1.6 c0,0.2 0,0.30000000000000004 0.1,0.4 c0,0.1 0.1,0.30000000000000004 0.1,0.4 c0.2,0.7000000000000001 0.8,1.1 1.6,1.1 C33.500000190734866,18.299999809265138 33.70000019073486,18.299999809265138 33.80000019073486,18.199999809265137 z" id="svg_22" fill-opacity="1"/><path fill="#773095" d="M32.70000019073486,12.999999809265137 c0.1,0 0.2,0 0.30000000000000004,0 c0.8,0 1.5,-0.6000000000000001 1.6,-1.4 c0,-0.1 0,-0.2 0,-0.30000000000000004 c0,-0.1 0,-0.2 0,-0.30000000000000004 c0,-0.8 -0.6000000000000001,-1.5 -1.3,-1.6 c-0.1,0 -0.2,0 -0.30000000000000004,0 c-0.8,0 -1.5,0.6000000000000001 -1.6,1.3 c0,0.1 0,0.2 -0.1,0.4 C31.200000190734862,11.999999809265137 31.800000190734863,12.799999809265138 32.70000019073486,12.999999809265137 z" id="svg_23" fill-opacity="1"/><path fill="#773095" d="M52.30000019073486,7.399999809265136 c0.30000000000000004,0.4 0.8,0.7000000000000001 1.3,0.7000000000000001 c0.30000000000000004,0 0.7000000000000001,-0.1 1,-0.30000000000000004 c0.4,-0.30000000000000004 0.7000000000000001,-0.8 0.7000000000000001,-1.3 c0,-0.30000000000000004 -0.1,-0.7000000000000001 -0.30000000000000004,-0.9 c-0.1,-0.1 -0.1,-0.2 -0.2,-0.30000000000000004 c-0.30000000000000004,-0.4 -0.8,-0.6000000000000001 -1.3,-0.6000000000000001 c-0.4,0 -0.7000000000000001,0.1 -1,0.30000000000000004 c-0.7000000000000001,0.5 -0.9,1.6 -0.30000000000000004,2.3 C52.20000019073486,7.299999809265138 52.30000019073486,7.399999809265136 52.30000019073486,7.399999809265136 z" id="svg_24" fill-opacity="1"/><path fill="#773095" d="M48.60000019073486,4.299999809265138 c0.1,0 0.2,0.1 0.30000000000000004,0.1 c0.2,0.1 0.5,0.2 0.8,0.2 c0.6000000000000001,0 1.2,-0.30000000000000004 1.4,-0.9 c0.1,-0.2 0.2,-0.5 0.2,-0.8 c0,-0.6000000000000001 -0.30000000000000004,-1.2 -0.9,-1.4 c-0.1,-0.1 -0.2,-0.1 -0.30000000000000004,-0.2 c-0.2,-0.1 -0.5,-0.2 -0.7000000000000001,-0.2 c-0.6000000000000001,0 -1.2,0.30000000000000004 -1.5,0.9 C47.500000190734866,2.899999809265136 47.80000019073486,3.899999809265136 48.60000019073486,4.299999809265138 z" id="svg_25" fill-opacity="1"/><path fill="#773095" d="M56.80000019073486,17.199999809265137 L56.80000019073486,17.199999809265137 c0,-0.1 0.1,-0.2 0.1,-0.4 c0.1,-0.4 0.1,-0.9 -0.1,-1.2 c-0.2,-0.4 -0.6000000000000001,-0.7000000000000001 -1,-0.8 c-0.2,0 -0.30000000000000004,-0.1 -0.5,-0.1 c-0.7000000000000001,0 -1.4,0.5 -1.6,1.2 c0,0.1 -0.1,0.2 -0.1,0.30000000000000004 c-0.1,0.2 -0.1,0.30000000000000004 -0.1,0.5 c0,0.7000000000000001 0.5,1.3 1.1,1.6 c0.2,0.1 0.30000000000000004,0.1 0.5,0.1 C56.000000190734866,18.399999809265136 56.60000019073486,17.899999809265136 56.80000019073486,17.199999809265137 z" id="svg_26" fill-opacity="1"/><path fill="#773095" d="M51.30000019073486,22.39999980926514 c0.30000000000000004,0.30000000000000004 0.7000000000000001,0.5 1.2,0.5 c0.4,0 0.9,-0.2 1.2,-0.5 c0.1,-0.1 0.2,-0.2 0.30000000000000004,-0.30000000000000004 c0.6000000000000001,-0.7000000000000001 0.6000000000000001,-1.7000000000000002 -0.1,-2.3 c-0.30000000000000004,-0.30000000000000004 -0.7000000000000001,-0.4 -1.1,-0.4 c-0.4,0 -0.9,0.2 -1.2,0.5 c-0.1,0.1 -0.1,0.1 -0.2,0.2 c-0.30000000000000004,0.30000000000000004 -0.5,0.7000000000000001 -0.5,1.2 C50.80000019073486,21.699999809265137 51.000000190734866,22.099999809265135 51.30000019073486,22.39999980926514 z" id="svg_27" fill-opacity="1"/><path fill="#773095" d="M50.10000019073486,23.599999809265135 c-0.2,0 -0.4,0 -0.6000000000000001,0.1 c-0.4,0.2 -0.7000000000000001,0.5 -0.9,0.9 c-0.2,0.4 -0.2,0.8 0,1.3 c0.1,0.2 0.2,0.30000000000000004 0.2,0.5 c0.30000000000000004,0.5 0.8,0.8 1.4,0.8 c0.30000000000000004,0 0.6000000000000001,-0.1 0.8,-0.2 c0.5,-0.30000000000000004 0.8,-0.8 0.8,-1.4 c0,-0.30000000000000004 -0.1,-0.6000000000000001 -0.2,-0.8 c0,0 0,-0.1 0,-0.1 C51.400000190734865,23.999999809265134 50.80000019073486,23.599999809265135 50.10000019073486,23.599999809265135 z" id="svg_28" fill-opacity="1"/><path fill="#773095" d="M32.000000190734866,51.69999980926514 c0.9,0 1.6,-0.7000000000000001 1.6,-1.6 v-0.30000000000000004 c0,-0.4 -0.2,-0.8 -0.5,-1.2 c-0.30000000000000004,-0.30000000000000004 -0.7000000000000001,-0.5 -1.2,-0.5 c-0.9,0 -1.6,0.7000000000000001 -1.6,1.6 v0.30000000000000004 c0,0.4 0.2,0.8 0.5,1.2 C31.10000019073486,51.59999980926514 31.500000190734866,51.69999980926514 32.000000190734866,51.69999980926514 z" id="svg_29" fill-opacity="1"/><path fill="#773095" d="M56.60000019073486,48.19999980926514 c-0.9,0 -1.6,0.7000000000000001 -1.6,1.6 l0,0.30000000000000004 c0,0.4 0.2,0.8 0.5,1.2 c0.30000000000000004,0.30000000000000004 0.7000000000000001,0.5 1.2,0.5 c0.9,0 1.6,-0.7000000000000001 1.6,-1.6 v-0.30000000000000004 C58.30000019073486,48.999999809265134 57.500000190734866,48.19999980926514 56.60000019073486,48.19999980926514 z" id="svg_30" fill-opacity="1"/><path fill="#773095" d="M56.60000019073486,53.59999980926514 c-0.9,0 -1.6,0.7000000000000001 -1.6,1.6 v0.30000000000000004 c0,0.9 0.7000000000000001,1.6 1.6,1.6 c0.9,0 1.6,-0.7000000000000001 1.6,-1.6 V55.19999980926514 c0,-0.4 -0.2,-0.9 -0.5,-1.2 C57.500000190734866,53.79999980926513 57.10000019073486,53.59999980926514 56.60000019073486,53.59999980926514 z" id="svg_31" fill-opacity="1"/><path fill="#773095" d="M56.60000019073486,42.79999980926514 c-0.9,0 -1.6,0.7000000000000001 -1.6,1.6 v0.30000000000000004 c0,0.4 0.2,0.8 0.5,1.2 c0.30000000000000004,0.30000000000000004 0.7000000000000001,0.5 1.2,0.5 c0.9,0 1.6,-0.7000000000000001 1.6,-1.6 v-0.30000000000000004 c0,-0.4 -0.2,-0.8 -0.5,-1.2 C57.500000190734866,42.999999809265134 57.10000019073486,42.79999980926514 56.60000019073486,42.79999980926514 z" id="svg_32" fill-opacity="1"/><path fill="#773095" d="M31.900000190734865,35.599999809265135 c0.1,0 0.2,0 0.4,0 c0.8,0 1.4,-0.5 1.6,-1.3 c0,-0.1 0,-0.2 0.1,-0.30000000000000004 c0,-0.1 0,-0.30000000000000004 0,-0.4 c0,-0.8 -0.5,-1.4 -1.2,-1.6 c-0.1,0 -0.30000000000000004,0 -0.4,0 c-0.8,0 -1.4,0.5 -1.6,1.2 c0,0.1 -0.1,0.2 -0.1,0.4 c-0.1,0.4 0,0.9 0.2,1.2 C31.10000019073486,35.19999980926514 31.500000190734866,35.499999809265134 31.900000190734865,35.599999809265135 z" id="svg_33" fill-opacity="1"/><path fill="#773095" d="M46.10000019073486,1.6999998092651367 C46.10000019073486,1.6999998092651367 46.10000019073486,1.6999998092651367 46.10000019073486,1.6999998092651367 c0,-0.9 -0.7000000000000001,-1.6 -1.6,-1.7000000000000002 h0 c-0.1,0 -0.2,0 -0.4,0 c-0.9,0 -1.6,0.7000000000000001 -1.6,1.7000000000000002 c0,0.9 0.7000000000000001,1.6 1.6,1.6 h0 c0.1,0 0.2,0 0.30000000000000004,0 c0,0 0,0 0,0 C45.400000190734865,3.299999809265138 46.10000019073486,2.599999809265137 46.10000019073486,1.6999998092651367 z" id="svg_34" fill-opacity="1"/><path fill="#773095" d="M56.60000019073486,37.499999809265134 c-0.9,0 -1.6,0.7000000000000001 -1.6,1.6 l0,0.30000000000000004 c0,0.9 0.7000000000000001,1.6 1.6,1.6 c0.9,0 1.6,-0.7000000000000001 1.6,-1.6 l0,-0.30000000000000004 C58.30000019073486,38.19999980926514 57.500000190734866,37.499999809265134 56.60000019073486,37.499999809265134 z" id="svg_35" fill-opacity="1"/><path fill="#773095" d="M52.80000019073486,30.199999809265137 c0.30000000000000004,0.4 0.8,0.7000000000000001 1.3,0.7000000000000001 c0.4,0 0.7000000000000001,-0.1 1,-0.30000000000000004 c0.4,-0.30000000000000004 0.7000000000000001,-0.8 0.6000000000000001,-1.3 c0,-0.4 -0.1,-0.7000000000000001 -0.30000000000000004,-1 c-0.1,-0.1 -0.2,-0.2 -0.2,-0.30000000000000004 c-0.30000000000000004,-0.4 -0.8,-0.6000000000000001 -1.3,-0.6000000000000001 c-0.4,0 -0.7000000000000001,0.1 -1,0.4 c-0.7000000000000001,0.6000000000000001 -0.8,1.6 -0.30000000000000004,2.3 C52.70000019073486,30.099999809265135 52.80000019073486,30.099999809265135 52.80000019073486,30.199999809265137 z" id="svg_36" fill-opacity="1"/><path fill="#773095" d="M32.000000190734866,40.999999809265134 c0.9,0 1.6,-0.7000000000000001 1.6,-1.6 v-0.30000000000000004 c0,-0.4 -0.2,-0.8 -0.5,-1.2 c-0.30000000000000004,-0.30000000000000004 -0.7000000000000001,-0.5 -1.2,-0.5 c-0.9,0 -1.6,0.7000000000000001 -1.6,1.6 l0,0.30000000000000004 C30.300000190734863,40.29999980926514 31.10000019073486,40.999999809265134 32.000000190734866,40.999999809265134 z" id="svg_37" fill-opacity="1"/><path fill="#773095" d="M33.400000190734865,60.59999980926514 c0.30000000000000004,0.30000000000000004 0.7000000000000001,0.5 1.2,0.5 c0,0 0,0 0,0 c0.9,0 1.6,-0.7000000000000001 1.6,-1.6 l0,-0.2 c0,-0.9 -0.7000000000000001,-1.6 -1.6,-1.6 c0,0 0,0 -0.1,0 c0,0 0,0 0,0 c0,0 0,0 0,0 h0 c-0.9,-0.1 -1.7000000000000002,0.6000000000000001 -1.8,1.5 c0,0 0,0.1 0,0.1 C32.70000019073486,59.79999980926513 33.000000190734866,60.29999980926513 33.400000190734865,60.59999980926514 z" id="svg_38" fill-opacity="1"/><path fill="#773095" d="M32.000000190734866,46.39999980926514 c0.9,0 1.6,-0.7000000000000001 1.6,-1.6 v-0.30000000000000004 c0,-0.4 -0.2,-0.8 -0.5,-1.2 c-0.30000000000000004,-0.30000000000000004 -0.7000000000000001,-0.5 -1.2,-0.5 c-0.9,0 -1.6,0.7000000000000001 -1.6,1.6 v0.30000000000000004 C30.300000190734863,45.599999809265135 31.10000019073486,46.39999980926514 32.000000190734866,46.39999980926514 z" id="svg_39" fill-opacity="1"/><path fill="#773095" d="M33.60000019073486,55.499999809265134 v-0.30000000000000004 c0,-0.9 -0.7000000000000001,-1.6 -1.6,-1.6 c-0.9,0 -1.6,0.7000000000000001 -1.6,1.6 v0.30000000000000004 c0,0.9 0.7000000000000001,1.6 1.6,1.6 C32.900000190734865,57.09999980926514 33.60000019073486,56.39999980926514 33.60000019073486,55.499999809265134 z" id="svg_40" fill-opacity="1"/><path fill="#773095" d="M18.000000190734863,24.499999809265134 c4.8,-2.1 7.7,-6.9 7.4,-12.1 c-0.4,-6.1 -5.3,-11 -11.4,-11.5 c-0.30000000000000004,0 -0.6000000000000001,0 -0.9,0 C6.300000190734863,0.7999998092651364 0.8000001907348633,6.399999809265136 0.8000001907348633,13.199999809265137 c0,4.9 2.9,9.3 7.4,11.3 c-4.9,2 -8.2,6.9 -8.2,12.2 l0,20 c0,0.9 0.4,1.8 1,2.4 c0.4,0.4 1,0.7000000000000001 1.6,0.9 l0,10.1 c0,2.4 1.9,4.3 4.3,4.3 c1.2,0 2.2,-0.5 3.1,-1.3 c0.8,-0.8 1.3,-1.9 1.3,-3.1 l0,-10 h3.8 l0,10 c0,2.4 1.9,4.3 4.3,4.3 c1.2,0 2.2,-0.5 3.1,-1.3 c0.8,-0.8 1.3,-1.9 1.3,-3.1 l0,-10.1 c1.5,-0.4 2.6,-1.7000000000000002 2.6,-3.3 l0,-20 C26.300000190734863,31.299999809265138 23.000000190734863,26.39999980926514 18.000000190734863,24.499999809265134 z" id="svg_41" fill-opacity="1"/><path fill="#773095" d="M80.40000019073486,24.499999809265134 c4.8,-2.1 7.7,-6.9 7.4,-12.1 c-0.4,-6.1 -5.3,-11 -11.4,-11.5 c-0.30000000000000004,0 -0.6000000000000001,0 -0.9,0 c-6.8,0 -12.3,5.5 -12.3,12.3 c0,4.9 2.9,9.3 7.4,11.3 c-4.9,2 -8.2,6.9 -8.2,12.2 l0,20 c0,0.9 0.4,1.8 1,2.4 c0.4,0.4 1,0.7000000000000001 1.6,0.9 l0,10.1 c0,2.4 1.9,4.3 4.3,4.3 c1.2,0 2.2,-0.5 3.1,-1.3 c0.8,-0.8 1.3,-1.9 1.3,-3.1 l0,-10 H77.30000019073486 l0,10 c0,2.4 1.9,4.3 4.3,4.3 c1.2,0 2.2,-0.5 3.1,-1.3 c0.8,-0.8 1.3,-1.9 1.3,-3.1 l0,-10.1 c1.5,-0.4 2.6,-1.7000000000000002 2.6,-3.3 l0,-20 C88.60000019073486,31.299999809265138 85.30000019073486,26.39999980926514 80.40000019073486,24.499999809265134 z" id="svg_42" fill-opacity="1"/></g></g></svg>