<svg xmlns="http://www.w3.org/2000/svg" xmlns:xlink="http://www.w3.org/1999/xlink" version="1.1" style="" xml:space="preserve" width="75" height="56"><rect id="backgroundrect" width="100%" height="100%" x="0" y="0" fill="none" stroke="none" class="" style=""/><g class="currentLayer" style=""><title>Layer 1</title><path d="M36.585586585351564,53.75003048632813 c-0.02246090000000001,-0.030273400000000006 -0.0673828,-0.09863280000000003 -0.11230470000000002,-0.17724610000000005 L23.91175838535156,32.95315548632812 c-2.3916016,-3.9296875 -3.109375,-8.5561523 -2.0214844,-13.0273438 s3.8505859,-8.2504883 7.7792969,-10.6416016 c7.5625,-4.6025390999999996 17.3017578,-2.6665039 22.5839844,4.1923828 c3.380249,-1.5787354000000002 7.2045288,-2.0072632 10.8659058,-1.2265625 c-0.9155884,-2.4593506 -2.3547974,-4.7628784 -4.3294678,-6.7375488 c-7.3499756000000005,-7.3499756000000005 -19.2799683,-7.3499756000000005 -26.6300049,0 c-7.3599854,-7.3499756000000005 -19.289978,-7.3499756000000005 -26.6399536,0 c-7.3600464,7.3600464 -7.3600464,19.2900391 0,26.6400146 l21.1599731,21.1600342 c2.7556763,2.7647705 7.0805664,2.99823 10.1116943,0.7174683 C36.72486878535156,53.93466188632813 36.64887998535156,53.84896848632812 36.585586585351564,53.75003048632813 z" id="svg_1" class="" fill-opacity="1" fill="#773095"/><path d="M67.46001438535156,42.08249668632813 L46.799980185351565,54.65250398632813 c-2.9099731,1.7800293 -6.7000122,0.8800049000000001 -8.5299683,-1.9799805 c-0.020019500000000003,-0.030029300000000005 -0.05004880000000001,-0.0700073 -0.0700073,-0.10998540000000001 L25.619987485351565,31.912513686328126 c-4.3699951,-7.1799927 -2.0900269000000002,-16.5499878 5.0900269,-20.9199829 c7.1799927,-4.3699951 16.539978,-2.0900269000000002 20.9099731,5.0899658 c3.7999878000000002,-2.3200073 8.2200317,-2.7699585 12.1799927,-1.6099854000000002 c3.5200195,1.0200195 6.6900024,3.3099976 8.7399902,6.6900024 C76.90996548535156,28.342506386328125 74.64000698535156,37.702491786328125 67.46001438535156,42.08249668632813 z" id="svg_2" class="" fill-opacity="1" fill="#63297c"/></g></svg>