<svg xmlns:dc="http://purl.org/dc/elements/1.1/" xmlns:cc="http://creativecommons.org/ns#" xmlns:rdf="http://www.w3.org/1999/02/22-rdf-syntax-ns#" xmlns:svg="http://www.w3.org/2000/svg" xmlns="http://www.w3.org/2000/svg" xmlns:sodipodi="http://sodipodi.sourceforge.net/DTD/sodipodi-0.dtd" xmlns:inkscape="http://www.inkscape.org/namespaces/inkscape" version="1.1" width="1171" height="1160" style=""><rect id="backgroundrect" width="100%" height="100%" x="0" y="0" fill="none" stroke="none" class="" style=""/><g class="currentLayer" style=""><title>Layer 1</title><g id="svg_1" class="selected" fill="#ffffff" fill-opacity="1"><path style="" d="" fill="#ffffff" id="svg_2" fill-opacity="1"/><path style="" d="m528.1937031250018,1150.697691312409 c-109.212,-10.8404 -207.531,-48.9146 -293.707,-113.7383 c-130.593,-98.2354 -211.705,-244.0654 -227.509,-409.0334 c-3.702,-38.636 -2.09,-95.627 3.849,-136.161 c28.578,-195.028 157.009,-363.429 338.035,-443.236 c45.521,-20.069 99.233,-35.579 147.913,-42.712 c52.931,-7.756 116.244,-7.756 169.175,0 c195.027,28.578 363.428,157.009 443.236,338.035 c20.068,45.521 35.578,99.233 42.711,147.913 c7.756,52.931 7.756,116.244 0,169.175 c-21.971,149.942 -103.984,287.0324 -226.113,377.9607 c-85.78,63.8664 -184.115,101.4195 -292.848,111.8359 c-23.892,2.2889 -81.506,2.2675 -104.742,-0.039000000000000014 zm-18.082,-392.4707 l0,-60.625 l71.25,0 l71.25,0 l0,60.625 l0,60.625 l57.5,0 l57.5,0 l0,-111.25 l0,-111.25 l37.5,0 c20.625,0 37.5,-0.466 37.5,-1.035 c0,-1.573 -123.935,-125.215 -125.511,-125.215 c-0.7550000000000002,0 -31.708,-30.34 -68.786,-67.422 l-67.413,-67.422 l-130.395,129.456 c-71.717,71.201 -130.395,129.947 -130.395,130.547 c0,0.6000000000000002 17.156,1.091 38.125,1.091 l38.125,0 l0,111.25 l0,111.25 l56.875,0 l56.875,0 l0,-60.625 z" fill="#ffffff" id="svg_3" fill-opacity="1"/></g></g></svg>