<svg xmlns="http://www.w3.org/2000/svg" xmlns:xlink="http://www.w3.org/1999/xlink" version="1.1" style="enable-background:new 0 0 100 100;" xml:space="preserve" width="90" height="90"><rect id="backgroundrect" width="100%" height="100%" x="0" y="0" fill="none" stroke="none" class="" style=""/><g class="currentLayer" style=""><title>Layer 1</title><g id="svg_1" class="selected" fill="#ffffff" fill-opacity="1"><path d="M45,0 L45,0 C20.1,0 0,20.1 0,45 s20.1,45 45,45 h0 c24.9,0 45,-20.1 45,-45 S69.9,0 45,0 zM70.7,68.6 C70.6,69.4 70,70 69.2,70 H20.8 c-0.8,0 -1.4,-0.6000000000000001 -1.5,-1.4 c0,-0.30000000000000004 -0.8,-8.5 4.6,-11.2 c1.2,-0.6000000000000001 2.8,-1.1 4.5,-1.6 c3.8,-1.2 8.5,-2.7 9.3,-5.5 c0,-0.4 -0.30000000000000004,-1.8 -1.3,-2.8 c-2,-2 -4.3,-7.7 -4.3,-13.3 c0,0 0,-0.1 0,-0.1 c0,-0.30000000000000004 0.6000000000000001,-8.2 5.1,-11.5 c0.6000000000000001,-0.5 3.1,-2.6 7.7,-2.6 c0,0 0.1,0 0.1,0 c4.6,0 7.2,2.1 7.7,2.6 c4.5,3.3 5.1,11.2 5.1,11.5 c0,0 0,0.1 0,0.1 c0,5.6 -2.2,11.3 -4.3,13.3 c-1,1 -1.2,2.4 -1.3,2.8 c0.8,2.8 5.5,4.3 9.3,5.5 c1.7000000000000002,0.5 3.3,1 4.5,1.6 c0,0 0,0 0,0 C71.5,60.099999999999994 70.8,68.3 70.7,68.6 z" id="svg_2" fill="#ffffff" fill-opacity="1"/></g></g></svg>