<svg xmlns="http://www.w3.org/2000/svg" data-name="Layer 1" width="62" height="37" style=""><rect id="backgroundrect" width="100%" height="100%" x="0" y="0" fill="none" stroke="none" class="" style=""/><title>VIP Member jadi</title><g class="currentLayer" style=""><title>Layer 1</title><path d="M57.630003099441524,0.0000027751922573315824 H3.870003099441533 a3.87,3.87 0 0 0 -3.87,3.87 v29 a3.87,3.87 0 0 0 3.87,3.87 H57.630003099441524 a3.87,3.87 0 0 0 3.87,-3.87 v-29 A3.87,3.87 0 0 0 57.630003099441524,0.0000027751922573315824 zm-53.76,1.5 H57.630003099441524 a2.37,2.37 0 0 1 2.37,2.37 v18.6 H1.5000030994415283 V3.860002775192264 A2.37,2.37 0 0 1 3.870003099441533,1.5000027751922573 zM60.00000309944153,29.720002775192256 H1.5000030994415283 V23.970002775192256 h58.5 zm-2.37,5.47 H3.870003099441533 a2.37,2.37 0 0 1 -2.37,-2.37 v-1.6 h58.5 v1.6 A2.37,2.37 0 0 1 57.630003099441524,35.180002775192264 z" id="svg_1" class="" stroke="#ffffff" stroke-opacity="1" fill="#ffffff" fill-opacity="1"/><path d="M6.520003099441524,27.59000277519226 H27.59000309944153 a0.7500000000000003,0.7500000000000003 0 0 0 0,-1.5 H6.520003099441524 a0.7500000000000003,0.7500000000000003 0 0 0 0,1.5 z" id="svg_2" class="" stroke="#ffffff" stroke-opacity="1" fill="#ffffff" fill-opacity="1"/><path d="M23.690003099441526,15.550002775192269 v3.31 a0.7500000000000003,0.7500000000000003 0 0 0 0.7500000000000003,0.7500000000000003 H37.06000309944153 a0.7500000000000003,0.7500000000000003 0 0 0 0.7500000000000003,-0.7500000000000003 V15.550002775192269 l2.47,-10.28 a0.7500000000000003,0.7500000000000003 0 0 0 -1.29,-0.6700000000000006 l-5.47,6.26 l-2.07,-6 a0.7500000000000003,0.7500000000000003 0 0 0 -1.42,0 l-2.07,6 l-5.47,-6.26 a0.7500000000000003,0.7500000000000003 0 0 0 -1.29,0.6700000000000006 zm12.63,2.56 H25.190003099441526 v-1.9 H36.31000309944153 zm-8.620000000000001,-5.29 a0.7500000000000003,0.7500000000000003 0 0 0 1.27,-0.25 L30.75000309944153,7.400002775192263 l1.78,5.18 a0.7500000000000003,0.7500000000000003 0 0 0 1.27,0.25 l4.3100000000000005,-4.94 l-1.6400000000000001,6.83 H25.03000309944153 l-1.6400000000000001,-6.83 z" id="svg_3" class="" stroke="#ffffff" stroke-opacity="1" fill="#ffffff" fill-opacity="1"/></g></svg>