<svg xmlns="http://www.w3.org/2000/svg" xmlns:xlink="http://www.w3.org/1999/xlink" version="1.1" width="100" height="125" style=""><rect id="backgroundrect" width="100%" height="100%" x="0" y="0" fill="none" stroke="none"/><title>Artboard Copy 6</title><desc>Created with Sketch.</desc><g class="currentLayer" style=""><title>Layer 1</title><g stroke="none" stroke-width="1" fill="#ffffff" fill-rule="evenodd" id="svg_1" class="" fill-opacity="1"><g fill="#ffffff" id="svg_2" fill-opacity="1"><path d="M50.3813945,76.3543132 L29.5216278,87.3209415 C26.1038426,89.1177776 23.8617298,87.4927209 24.5150686,83.6834633 L28.4989295,60.4557718 L11.6230238,44.0058293 C8.85797745,41.3105753 9.71064723,38.6760291 13.5353592,38.1202659 L36.8572874,34.7313914 L47.2871707,13.5981395 C48.9960633,10.1355449 51.7651551,10.1323625 53.4756183,13.5981395 L63.9055016,34.7313914 L87.2274297,38.1202659 C91.0486298,38.6755188 91.9073528,41.3080981 89.1397652,44.0058293 L72.2638595,60.4557718 L76.2477204,83.6834633 C76.9004593,87.4892231 74.6620876,89.119429 71.2411611,87.3209415 L50.3813945,76.3543132 Z" id="svg_3" fill="#ffffff" fill-opacity="1"/></g></g><text x="0" y="115" fill="#000000" font-size="5px" font-weight="bold" font-family="'Helvetica Neue', Helvetica, Arial-Unicode, Arial, Sans-serif" id="svg_4">Created by Kero</text><text x="0" y="120" fill="#000000" font-size="5px" font-weight="bold" font-family="'Helvetica Neue', Helvetica, Arial-Unicode, Arial, Sans-serif" id="svg_5">from the Noun Project</text></g></svg>